<!DOCTYPE svg PUBLIC "-//W3C//DTD SVG 1.1//EN" "http://www.w3.org/Graphics/SVG/1.1/DTD/svg11.dtd">
<!-- Uploaded to: SVG Repo, www.svgrepo.com, Transformed by: SVG Repo Mixer Tools -->
<svg fill="#85586F" width="167px" height="167px" viewBox="-2.88 -2.88 37.76 37.76" id="Camada_1" version="1.1" xml:space="preserve" xmlns="http://www.w3.org/2000/svg" xmlns:xlink="http://www.w3.org/1999/xlink">
<g id="SVGRepo_bgCarrier" stroke-width="0">
<rect x="-2.88" y="-2.88" width="37.76" height="37.76" rx="18.88" fill="#F8ECD1" strokewidth="0"/>
</g>
<g id="SVGRepo_tracerCarrier" stroke-linecap="round" stroke-linejoin="round"/>
<g id="SVGRepo_iconCarrier">
<style type="text/css"> .st0{fill-rule:evenodd;clip-rule:evenodd;} </style>
<path class="st0" d="M12.6,16.1v11.6c0,0.2,0.1,0.3,0.3,0.3h4.6c0.2,0,0.3-0.1,0.3-0.3V15.9h3.4c0.2,0,0.3-0.1,0.3-0.3l0.3-3.6 c0-0.2-0.1-0.3-0.3-0.3h-3.7V9.2c0-0.6,0.5-1.1,1.2-1.1h2.6C21.9,8.1,22,8,22,7.8V4.3C22,4.1,21.9,4,21.7,4h-4.4 c-2.6,0-4.7,1.9-4.7,4.3v3.4h-2.3c-0.2,0-0.3,0.1-0.3,0.3v3.6c0,0.2,0.1,0.3,0.3,0.3h2.3V16.1z"/>
</g>
</svg>